<svg xmlns="http://www.w3.org/2000/svg" viewBox="0 0 1200 630" width="1200" height="630">
  <defs>
    <linearGradient id="bg" x1="0%" y1="0%" x2="100%" y2="100%">
      <stop offset="0%" stop-color="#1976d2"/>
      <stop offset="100%" stop-color="#03163b"/>
    </linearGradient>
    <linearGradient id="accent" x1="0%" y1="0%" x2="100%" y2="0%">
      <stop offset="0%" stop-color="#7dd3fc"/>
      <stop offset="50%" stop-color="#c084fc"/>
      <stop offset="100%" stop-color="#f9a8d4"/>
    </linearGradient>
  </defs>

  <rect width="1200" height="630" fill="url(#bg)"/>

  <path opacity="0.35"
        d="M-50 500 C 100 380, 250 560, 400 420 S 700 280, 900 360 S 1150 280, 1300 200"
        stroke="url(#accent)" stroke-width="14" stroke-linecap="round" fill="none"/>
  <path opacity="0.20"
        d="M-50 200 C 150 280, 320 120, 500 240 S 800 380, 1050 260 S 1250 320, 1300 280"
        stroke="url(#accent)" stroke-width="10" stroke-linecap="round" fill="none"/>

  <g transform="translate(120, 195)">
    <circle cx="120" cy="120" r="120" fill="#1976d2" stroke="#ffffff" stroke-width="6"/>
    <g transform="translate(120, 120)" fill="#ffffff">
      <ellipse cx="-78" cy="-12" rx="28" ry="32"/>
      <ellipse cx="78" cy="-12" rx="28" ry="32"/>
      <ellipse cx="0" cy="0" rx="68" ry="62" fill="none" stroke="#ffffff" stroke-width="6"/>
      <circle cx="-22" cy="-10" r="9" fill="#1976d2"/>
      <circle cx="22" cy="-10" r="9" fill="#1976d2"/>
      <path d="M -22 20 Q 0 38 22 20" stroke="#1976d2" stroke-width="6" fill="none" stroke-linecap="round"/>
    </g>
  </g>

  <g transform="translate(420, 230)" font-family="Inter, system-ui, sans-serif" fill="#ffffff">
    <text x="0" y="0" font-size="78" font-weight="800" letter-spacing="-1">MonkeyJobs</text>
    <text x="0" y="64" font-size="32" font-weight="500" opacity="0.95">Casa de desarrollo</text>
    <text x="0" y="106" font-size="32" font-weight="500" opacity="0.95">de software en Bogotá</text>
    <text x="0" y="180" font-size="22" font-weight="400" opacity="0.75" letter-spacing="2">WEB · APPS · IA · SISTEMAS EMPRESARIALES</text>
  </g>
</svg>
